Coordinates
version=1
nRows=9
nColumns=36
inDegrees=yes

Units are S.I. units (second, meters, Newtons, ...)
If the header above contains a line with 'inDegrees', this indicates whether rotational values are in degrees (yes) or radians (no).

endheader
time	pelvis_tilt	pelvis_list	pelvis_rotation	pelvis_tx	pelvis_ty	pelvis_tz	hip_flexion_r	hip_adduction_r	hip_rotation_r	knee_angle_r	knee_angle_r_beta	ankle_angle_r	subtalar_angle_r	mtp_angle_r	hip_flexion_l	hip_adduction_l	hip_rotation_l	knee_angle_l	knee_angle_l_beta	ankle_angle_l	subtalar_angle_l	mtp_angle_l	lumbar_extension	lumbar_bending	lumbar_rotation	arm_flex_r	arm_add_r	arm_rot_r	elbow_flex_r	pro_sup_r	arm_flex_l	arm_add_l	arm_rot_l	elbow_flex_l	pro_sup_l
      0.00000000	     -7.19298781	      1.64464998	      5.80608332	      0.60238392	      0.90607021	      0.10853387	      4.02700780	    -11.31157091	     -5.37152988	      2.40599119	      0.04199247	      3.38169692	    -13.12220916	     -6.38861033	      9.71032420	     -7.89432838	     -7.82022291	      8.54406065	      0.14912199	      1.26356341	     -9.53559194	     -6.38861033	     -4.12943220	     -2.95570940	     -0.92003337	     46.44163150	     12.30881863	     59.24275627	    125.59856632	    106.80710280	     37.46192391	      9.61847479	     63.95389877	    125.34764624	    108.24087953
      0.01666670	     -9.40991545	      0.88271015	      4.90880922	      0.60424950	      0.90207444	      0.10867507	      6.10609377	    -10.65974435	     -6.83697990	      1.64081078	      0.02863755	      5.90167927	     -8.70839542	     -6.68027574	     12.19056858	     -8.62571204	    -10.98279588	      8.58042323	      0.14975664	      3.01548346	     -8.24172826	     -6.68027574	     -0.77474858	     -2.44113066	     -0.37365023	     47.29102396	     11.77654023	     60.61599916	    128.34172334	    103.38437884	     38.58756124	      9.80053006	     65.78496408	    126.77311008	    104.24196807
      0.03333330	    -10.02105379	      0.96425268	      4.40595480	      0.60464944	      0.90100472	      0.10960518	      6.56712944	    -10.72691778	     -7.86506969	      0.97137727	      0.01695373	      5.94014008	     -8.08281293	     -7.10590455	     12.66132008	     -8.71738769	    -12.40847994	      8.26700669	      0.14428649	      2.86339507	     -8.45969957	     -7.10590455	     -0.26125155	     -2.76255896	      0.30711524	     46.96216038	     11.84732236	     62.11773464	    129.62733265	    106.64112009	     38.81712404	      9.66494605	     66.48969928	    127.92544135	    104.12848286
      0.05000000	    -10.03530641	      1.26621765	      4.02476278	      0.60479438	      0.90309104	      0.10978116	      6.60271112	    -11.03628928	     -8.63981495	      0.66568089	      0.01161832	      6.47407017	     -6.43024199	     -7.31529456	     12.21363780	     -8.54630016	    -13.24296483	      7.63453924	      0.13324785	      2.35790316	     -8.79006255	     -7.31529456	     -0.28846216	     -3.27895724	      0.96429974	     46.73601849	     11.72411272	     63.47113953	    129.69076429	    105.71900789	     39.73771817	      9.84796749	     67.61392845	    127.45767179	    102.02636430
      0.06666670	    -10.09512112	      1.33767815	      3.55844843	      0.60474552	      0.90289360	      0.11011496	      6.78225539	    -11.06668235	     -8.88968603	      0.55134934	      0.00962286	      6.84199992	     -5.32106919	     -7.42788429	     11.85282990	     -8.60516943	    -13.72581875	      7.24940360	      0.12652596	      2.41489687	     -8.36290219	     -7.42788429	     -0.15200485	     -3.12449773	      1.31861176	     46.38868023	     11.86286298	     64.65356547	    129.25395882	    104.28060591	     39.82416511	      9.82434338	     67.84512168	    127.37753220	    100.19911019
      0.08333330	    -10.17449769	      1.41482227	      3.29935078	      0.60458851	      0.90264046	      0.11036586	      6.94749230	    -11.10037443	     -9.11290261	      0.50633875	      0.00883728	      7.17872790	     -4.40612873	     -7.44241930	     11.80323325	     -8.57926322	    -13.66010897	      7.21195447	      0.12587235	      2.66367757	     -8.18054162	     -7.44241930	      0.08362672	     -3.04831079	      1.61841843	     46.29052164	     11.74798809	     65.44853586	    128.98460246	     99.38605255	     39.83590329	      9.97511837	     68.09016439	    127.11039825	     96.00802439
      0.10000000	    -10.80162185	      1.55193517	      3.00616688	      0.60484562	      0.90179064	      0.11094771	      7.75109031	    -11.23758969	     -8.72584674	      0.52047723	      0.00908404	      7.37604724	     -4.21294117	     -7.45090911	     12.36500130	     -8.51005394	    -14.15202939	      7.29456607	      0.12731420	      2.79605831	     -7.91949296	     -7.45090911	      1.22816761	     -3.06910214	      2.01499385	     45.98536709	     11.65123402	     65.87781490	    128.27678997	     95.95136771	     39.24331698	      9.92691687	     68.39660958	    126.64263152	     92.88416068
      0.11666670	    -10.12032277	      1.62860139	      3.11822677	      0.60441196	      0.90290249	      0.11079648	      6.94866376	    -11.30903998	     -9.58126610	      0.47619043	      0.00831109	      7.62912810	     -3.08548890	     -7.46310008	     11.74267177	     -8.42096349	    -13.48226201	      7.52321376	      0.13130485	      2.85786315	     -8.37313429	     -7.46310008	      0.31759170	     -3.07767873	      1.71019121	     46.22500078	     11.54615265	     65.88841208	    128.20393475	     99.94448037	     39.47424174	     10.33231528	     68.81956372	    126.22583787	     95.01667628
      0.13333330	    -10.17729208	      1.74248591	      3.07264484	      0.60434985	      0.90273741	      0.11100729	      7.03072936	    -11.41592042	     -9.71500052	      0.47149282	      0.00822910	      7.78474023	     -2.74252500	     -7.46956076	     11.77600957	     -8.32260779	    -13.46894197	      7.54807558	      0.13173877	      2.80867285	     -8.59644367	     -7.46956076	      0.54462374	     -3.10367543	      1.58410263	     46.21986326	     11.62688439	     65.97878879	    127.90907035	     96.29673511	     39.20289701	     10.64145156	     69.34000380	    125.86170542	     91.72103790
